<svg width="2302" height="882" viewBox="0 0 2302 882" fill="none" xmlns="http://www.w3.org/2000/svg">
<g opacity="0.75">
<path d="M990.365 493.302L1163.75 354.329L1252.04 353.538L1526.4 122.088L1569.68 122.884L1683.88 32.2118L1762.04 0L1813.21 71.5826L2153.58 311.383L2301.48 344.782V493.302L1911.54 612.028H1065.53L990.365 493.302Z" fill="#0D0C0C"/>
<path d="M1762.04 0L1730.31 68.0031L1674.29 87.0926L1751.45 75.1622L1801.64 175.377L1751.45 211.168H1669.42L1626.26 249.343C1626.26 249.343 1673.17 230.254 1680.14 220.711C1687.1 211.168 1751.45 235.029 1751.45 235.029L1801.63 344.782L1490.65 540.684L990.363 493.302L1155.01 344.782H1251.65L1516.46 114.533H1569.68L1680.14 21.473L1762.04 0Z" fill="#373737" fill-opacity="0.29"/>
<path d="M774.8 464.317L587.18 271.951L474.573 285.356L394.144 186.154L196.633 357.743L67.9424 411.367L60.457 695.644C60.457 695.644 665.273 778.048 670.467 767.64C675.655 757.228 774.8 464.317 774.8 464.317Z" fill="#0D0C0C"/>
<path d="M394.144 186.154L450.443 336.296L394.144 345.234L496.916 355.955L543.385 441.752L306.96 488.225L357.5 497.163L239.531 695.644H60.4568L0 459.732L60.4568 386.662L190.378 347.022L394.144 186.154Z" fill="#373737" fill-opacity="0.29"/>
<path d="M2188.19 636.777L1909.55 464.501L1666.22 550.641L1031 319.248L53.4961 582.731V771.891L2188.19 881.684V636.777Z" fill="#0D0C0C"/>
<path d="M1031 316.637L908.421 445.001H1007.32L53.4961 769.28V580.12L1031 316.637Z" fill="#373737" fill-opacity="0.29"/>
</g>
</svg>
